# xmcd
#
# Track frame offsets: 
#        150
#        14864
#        31248
#        59298
#        89462
#
# Disc length: 1555 seconds
#
# Revision: 0
# Processed by: cddbd v1.5.2PL0 Copyright (c) Steve Scherf et al.
# Submitted via: ExactAudioCopy v0.95b4
#
DISCID=3c061105
DTITLE=BBE - Hollywood
DYEAR=1900
DGENRE=
TTITLE0=Radio Edit
TTITLE1=BBE Radio Edit
TTITLE2=Original Club Mix
TTITLE3=Kaylab Remix
TTITLE4=Alex Flatner Winning Loose Remix
EXTD=
EXTT0=
EXTT1=
EXTT2=
EXTT3=
EXTT4=
PLAYORDER=
